<svg xmlns="http://www.w3.org/2000/svg" viewBox="0 0 400 400" width="400" height="400">
  <rect width="400" height="400" fill="#f0f4f8"/>
  <path d="M120 90 L80 130 L120 150 L120 310 L280 310 L280 150 L320 130 L280 90 Q260 110 220 110 L220 145 Q200 155 180 145 L180 110 Q140 110 120 90 Z" fill="#1e3a5f" stroke="#152d4a" stroke-width="2"/>
  <path d="M180 110 Q200 130 220 110" fill="none" stroke="#152d4a" stroke-width="2"/>
  <line x1="200" y1="110" x2="200" y2="165" stroke="#152d4a" stroke-width="1.5"/>
  <circle cx="200" cy="118" r="3" fill="#c8a96e"/>
  <circle cx="200" cy="130" r="3" fill="#c8a96e"/>
  <circle cx="200" cy="142" r="3" fill="#c8a96e"/>
  <rect x="148" y="175" width="104" height="90" rx="10" fill="#ffffff" opacity="0.15" stroke="#ffffff" stroke-width="1.5" stroke-dasharray="5,4"/>
  <text x="200" y="215" text-anchor="middle" font-family="Arial,sans-serif" font-size="11" fill="#ffffff" opacity="0.8">Logo</text>
  <text x="200" y="232" text-anchor="middle" font-family="Arial,sans-serif" font-size="11" fill="#ffffff" opacity="0.8">personalizzato</text>
</svg>
