<svg xmlns="http://www.w3.org/2000/svg" viewBox="0 0 400 400" width="400" height="400">
  <rect width="400" height="400" fill="#1a1a2e"/>
  <rect x="80" y="150" width="200" height="165" rx="22" fill="#16213e"/>
  <path d="M280 180 Q345 180 345 240 Q345 300 280 300" stroke="#16213e" stroke-width="30" fill="none" stroke-linecap="round"/>
  <rect x="95" y="165" width="170" height="135" rx="18" fill="#0f3460"/>
  <rect x="115" y="185" width="130" height="95" rx="12" fill="#533483" opacity="0.9"/>
  <text x="180" y="222" text-anchor="middle" font-family="Georgia,serif" font-size="12" fill="#e94560">Tazza</text>
  <text x="180" y="242" text-anchor="middle" font-family="Georgia,serif" font-size="12" fill="#e94560">Magica</text>
  <text x="180" y="262" text-anchor="middle" font-family="Georgia,serif" font-size="10" fill="#ffd700">✦ cambia colore ✦</text>
  <circle cx="290" cy="100" r="18" fill="none" stroke="#ffd700" stroke-width="2.5"/>
  <text x="290" y="106" text-anchor="middle" font-family="Arial" font-size="18" fill="#ffd700">★</text>
  <circle cx="100" cy="120" r="10" fill="none" stroke="#e94560" stroke-width="2"/>
  <text x="100" y="125" text-anchor="middle" font-family="Arial" font-size="12" fill="#e94560">✦</text>
  <path d="M135 110 Q140 88 135 68" stroke="#ffd700" stroke-width="4" fill="none" stroke-linecap="round"/>
  <path d="M165 102 Q170 80 165 60" stroke="#ffd700" stroke-width="4" fill="none" stroke-linecap="round"/>
  <path d="M195 110 Q200 88 195 68" stroke="#ffd700" stroke-width="4" fill="none" stroke-linecap="round"/>
  <rect x="80" y="315" width="200" height="12" rx="6" fill="#0f3460" opacity="0.7"/>
</svg>
