<svg xmlns="http://www.w3.org/2000/svg" width="700" height="1000" viewBox="0 0 700 1000">
  <defs>
    <linearGradient id="sky2" x1="0%" y1="0%" x2="0%" y2="100%">
      <stop offset="0%" style="stop-color:#1a237e"/>
      <stop offset="45%" style="stop-color:#283593"/>
      <stop offset="100%" style="stop-color:#4a148c"/>
    </linearGradient>
    <linearGradient id="snow" x1="0%" y1="0%" x2="0%" y2="100%">
      <stop offset="0%" style="stop-color:#eceff1"/>
      <stop offset="100%" style="stop-color:#b0bec5"/>
    </linearGradient>
  </defs>
  <!-- Sky -->
  <rect width="700" height="1000" fill="url(#sky2)"/>
  <!-- Stars -->
  <circle cx="80" cy="80" r="2" fill="white" opacity="0.9"/>
  <circle cx="150" cy="45" r="1.5" fill="white" opacity="0.8"/>
  <circle cx="220" cy="100" r="2" fill="white" opacity="0.7"/>
  <circle cx="350" cy="60" r="2.5" fill="white" opacity="0.9"/>
  <circle cx="420" cy="30" r="1.5" fill="white" opacity="0.8"/>
  <circle cx="500" cy="90" r="2" fill="white" opacity="0.7"/>
  <circle cx="580" cy="50" r="2" fill="white" opacity="0.9"/>
  <circle cx="630" cy="120" r="1.5" fill="white" opacity="0.6"/>
  <circle cx="60" cy="180" r="1.5" fill="white" opacity="0.7"/>
  <circle cx="290" cy="150" r="2" fill="white" opacity="0.8"/>
  <circle cx="460" cy="170" r="1.5" fill="white" opacity="0.7"/>
  <!-- Northern lights -->
  <path d="M0 300 Q175 200 350 280 Q525 360 700 260" fill="none" stroke="#00e5ff" stroke-width="60" opacity="0.08"/>
  <path d="M0 340 Q200 250 400 320 Q560 380 700 300" fill="none" stroke="#69f0ae" stroke-width="40" opacity="0.1"/>
  <!-- Mountain range back -->
  <path d="M0 700 L140 420 L280 560 L420 380 L560 500 L700 420 L700 1000 L0 1000 Z" fill="#1a237e" opacity="0.6"/>
  <!-- Mountain range front -->
  <path d="M0 800 L100 560 L200 650 L350 460 L480 600 L600 500 L700 580 L700 1000 L0 1000 Z" fill="#283593" opacity="0.8"/>
  <!-- Snow caps -->
  <path d="M100 560 L80 590 L120 590 Z" fill="url(#snow)"/>
  <path d="M350 460 L320 495 L380 495 Z" fill="url(#snow)"/>
  <path d="M600 500 L575 530 L625 530 Z" fill="url(#snow)"/>
  <!-- Foreground hills -->
  <path d="M0 900 Q175 820 350 880 Q525 940 700 870 L700 1000 L0 1000 Z" fill="#37474f"/>
  <!-- Pine trees -->
  <path d="M60 870 L80 770 L100 870 Z" fill="#2e7d32" opacity="0.9"/>
  <path d="M80 860 L100 780 L120 860 Z" fill="#2e7d32"/>
  <path d="M580 850 L600 760 L620 850 Z" fill="#2e7d32"/>
  <path d="M610 860 L630 770 L650 860 Z" fill="#2e7d32" opacity="0.9"/>
  <!-- Moon -->
  <circle cx="580" cy="130" r="45" fill="#fff9c4" opacity="0.9"/>
  <circle cx="600" cy="115" r="38" fill="#1a237e" opacity="0.9"/>
  <!-- Text -->
  <rect x="0" y="920" width="700" height="80" fill="#0d0d2b" opacity="0.5"/>
  <text x="350" y="962" text-anchor="middle" font-family="Georgia,serif" font-size="26" fill="#eceff1" letter-spacing="3">PAESAGGIO MONTANO</text>
  <text x="350" y="988" text-anchor="middle" font-family="Arial,sans-serif" font-size="13" fill="#b0bec5" letter-spacing="1">Tela Stampata UV • 70×100 cm</text>
</svg>
